<?xml version="1.0" encoding="utf-8"?>
<!-- Generator: Adobe Illustrator 25.2.0, SVG Export Plug-In . SVG Version: 6.00 Build 0)  -->
<svg version="1.1" id="Calque_1" xmlns="http://www.w3.org/2000/svg" xmlns:xlink="http://www.w3.org/1999/xlink" x="0px" y="0px"
	 viewBox="0 0 620 122" style="enable-background:new 0 0 620 122;" xml:space="preserve">
<style type="text/css">
	.st0{fill:#1D1D1B;}
</style>
<g>
	<g>
		<path class="st0" d="M344.9,42.6l9.5-27.6l9.3,27.6H344.9z M242.3,30.4h-5.1V4h4.3c7.5,0,12.6,4.9,12.6,13.9
			C254.1,22.8,250.2,30.4,242.3,30.4 M184.6,42.6l9.5-27.7l9.3,27.6L184.6,42.6L184.6,42.6z M453.8,4V1.7h-32V4h5v43.6L397,1.7
			h-13.9V4h5v58.5h-8.6L357.8-1l-22.3,63.5h-8.3V4h5V1.7H319l-16.5,47.9L285.1,1.7h-12.9V4h5v58.5h-9.9c-2.8,0-5.2-2.5-5.2-6.7v-9.2
			c0-7.1-2.3-13-9.4-15c6.2-1.8,10.5-7.7,10.5-14c0-9-6.7-15.8-19.6-15.8h-19.5v2.3h5v58.5h-10L197.4-1l-22.3,63.5h-4.4v2.3h12.5
			v-2.3h-5.5l6.2-17.7h20.3l5.9,17.7h-7.6v2.3h42.4v-2.3h-7.7V32.7h5.2c7.5,0,11.3,3.1,11.3,10.4v5.4c0,12.9,8.5,16.3,13.1,16.3
			h18.1v-2.3h-5.4V10.7l20.4,54.8L319.1,9v53.5h-5v2.3h29.4v-2.3H338l6.2-17.7h20.3l5.9,17.7h-7.6v2.3h32.4v-2.3h-5V7.3L429,66.9V4
			h11.7v58.5h-5v2.3h18v-2.3h-5V4H453.8z"/>
	</g>
	<g>
		<path class="st0" d="M243.4,110.9v3.7h-2.9V87.2h2.9v11.9c1.6-2.3,3.8-4.3,7.4-4.3c4.7,0,9.3,3.7,9.3,10v0.1
			c0,6.3-4.6,10.1-9.3,10.1C247.2,115.1,244.9,113.1,243.4,110.9z M257.1,105.1L257.1,105.1c0-4.7-3.2-7.6-6.8-7.6c-3.6,0-7,3-7,7.5
			v0.1c0,4.5,3.4,7.5,7,7.5C254.1,112.4,257.1,109.8,257.1,105.1z"/>
		<path class="st0" d="M268,105.1L268,105.1c0-5.7,3.9-10.2,9.3-10.2c5.7,0,9,4.6,9,10.2c0,0.4,0,0.6,0,0.9h-15.4
			c0.4,4.2,3.4,6.6,6.8,6.6c2.7,0,4.5-1.1,6.1-2.7l1.8,1.6c-2,2.2-4.3,3.7-8,3.7C272.3,115.1,268,111.1,268,105.1z M283.4,103.9
			c-0.3-3.5-2.3-6.6-6.2-6.6c-3.4,0-5.9,2.8-6.3,6.6H283.4z"/>
		<path class="st0" d="M293.6,109.1L293.6,109.1c0-4.2,3.4-6.3,8.3-6.3c2.5,0,4.2,0.3,6,0.8v-0.7c0-3.5-2.2-5.3-5.8-5.3
			c-2.3,0-4.1,0.6-5.9,1.4l-0.8-2.3c2.2-1,4.2-1.6,7-1.6c2.7,0,4.8,0.7,6.3,2.2c1.3,1.3,2,3.2,2,5.7v11.9h-2.8V112
			c-1.3,1.8-3.6,3.3-7,3.3C297.3,115.1,293.6,112.9,293.6,109.1z M307.9,107.6v-1.9c-1.4-0.4-3.3-0.8-5.7-0.8c-3.7,0-5.7,1.6-5.7,4
			v0.1c0,2.4,2.2,3.8,4.9,3.8C305,112.8,307.9,110.6,307.9,107.6z"/>
		<path class="st0" d="M320.3,107.3v-12h2.9v11.4c0,3.6,2,5.8,5.3,5.8s5.8-2.4,5.8-6.1V95.3h2.8v19.4h-2.8v-3.4
			c-1.3,2.1-3.3,3.8-6.7,3.8C323,115.1,320.3,111.9,320.3,107.3z"/>
		<path class="st0" d="M348.4,109.6V97.9h-2.7v-2.6h2.7v-5.8h2.9v5.8h6.2v2.5h-6.2v11.3c0,2.3,1.3,3.2,3.3,3.2c1,0,1.8-0.2,2.8-0.7
			v2.5c-1,0.5-2.1,0.8-3.5,0.8C350.8,114.9,348.4,113.4,348.4,109.6z"/>
		<path class="st0" d="M380.8,95.3h3.1l-8.2,20c-1.7,4-3.5,5.5-6.5,5.5c-1.6,0-2.8-0.3-4.1-1l1-2.3c0.9,0.5,1.8,0.7,3,0.7
			c1.7,0,2.8-0.9,4-3.7l-8.8-19.2h3.2l7,16.2L380.8,95.3z"/>
	</g>
</g>
</svg>
