<?xml version="1.0" encoding="utf-8"?>
<!-- Generator: Adobe Illustrator 16.0.3, SVG Export Plug-In . SVG Version: 6.00 Build 0)  -->
<!DOCTYPE svg PUBLIC "-//W3C//DTD SVG 1.1//EN" "http://www.w3.org/Graphics/SVG/1.1/DTD/svg11.dtd">
<svg version="1.1" id="Capa_1" xmlns="http://www.w3.org/2000/svg" xmlns:xlink="http://www.w3.org/1999/xlink" x="0px" y="0px"
	 width="2426.475px" height="437.314px" viewBox="36.77 1031.343 2426.475 437.314"
	 enable-background="new 36.77 1031.343 2426.475 437.314" xml:space="preserve">
<g>
	<path fill="#FFFFFF" d="M0,2500"/>
	<path d="M2108.391,1048.554l18.521,0.648c12.671,0,21.932,0.493,27.132,1.297c5.344,0.817,9.248,2.438,11.854,4.553
		c3.424,2.438,5.681,6.666,6.485,12.347c0.661,5.85,1.142,17.211,1.142,34.267v250.563l-248.631-314.543h-132.33v10.882h50.517
		l11.504,7.626v356.786c0,0.804-0.155,1.776-0.298,2.58c-0.143,0.805-0.324,1.466-0.324,1.946
		c-1.297,13.981-4.072,23.526-8.132,28.754c-4.047,5.019-14.772,7.47-32.152,6.99h-51.801l-160.604-421.906h-8.937l-20.44,57.002
		l-113.836,316.981c-1.945,5.849-4.072,11.219-5.693,15.603c-1.621,4.539-3.398,8.612-5.045,11.854
		c-5.188,10.233-11.349,16.394-18.664,18.339c-5.681,1.466-14.772,2.283-27.431,2.283v-0.156h-62.021v-404.695h62.034v-10.882
		h-124.068l-130.398,320.405l-139.386-320.405H888.351v10.882h53.76l5.681,11.53v354.178c0,15.759-2.762,26.472-8.274,31.659
		c-5.525,5.344-16.238,7.808-31.983,7.315h-21.595v10.868h139.97v-10.868l-18.508,0.636c-23.54,0-37.521-3.904-42.061-11.854
		c-4.384-7.808-6.667-19.637-6.667-35.407v-5.162v-5.046c-0.461-1.805-0.679-3.662-0.648-5.524v-307.085l160.604,372.037
		l158.49-385.514v382.933h-61.386v10.869h308.876v-10.869l-19.806,0.636c-15.421,0-26.315-1.466-32.956-4.047
		c-6.511-2.762-9.908-7.808-9.908-14.461c0-2.102,0.635-5.525,1.919-10.207c1.323-4.708,3.269-11.219,5.694-19.183l29.389-81.19
		h145.832l49.194,128.452h-63.811v10.869h301.054v-10.233c-32.295,0-51.619-2.763-57.65-8.612
		c-5.824-5.681-8.924-25.641-8.924-59.751V1067.71l314.725,399.638h3.723v-365.034c0-16.238,0.324-26.796,0.661-31.997
		c0.324-5.032,1.803-9.26,3.903-12.179c0.324,0,0.805-0.324,0.961-0.648c0.274-0.475,0.605-0.914,0.985-1.31
		c2.101-2.918,5.681-4.863,10.868-5.681c5.046-0.804,13.981-1.621,26.796-1.945h17.859v-10.882h-136.74v10.882H2108.391
		L2108.391,1048.554z M1571.87,1313.902h-69.024l67.079-189.178l1.945,5.033l68.999,184.157h-68.999V1313.902z M2463.244,1048.554
		v-10.882h-187.881v10.882h61.854v404.695h-61.854v10.869h187.881v-10.869h-62.035v-404.695H2463.244z M845.811,1454.533
		c-2.763,0.804-5.188,1.297-7.315,1.297c-1.297,0.324-2.594,0.661-3.891,0.661h-4.397c-13.955,0-23.216-8.456-27.275-25.005
		c-4.059-16.563-6.821-35.745-8.611-57.508c-0.324-2.102-0.805-4.229-0.973-6.33c-0.169-2.101-0.324-4.384-0.324-6.484
		c-1.111-14.785-3.117-29.489-6.005-44.032c-2.763-14.111-7.627-25.667-14.448-34.577c-8.431-11.53-19.818-20.285-33.773-26.29
		c-13.956-6.031-34.267-10.895-60.737-14.63c1.31,0,2.438-0.169,3.566-0.324c1.126-0.201,2.267-0.31,3.411-0.324
		c30.375-4.216,57.975-13.476,83.149-27.444c25.161-14.137,37.664-39.143,37.664-74.861c0-36.212-12.503-61.555-37.34-75.666
		c-24.851-14.292-52.295-22.411-82.177-24.046c-2.677-0.46-5.391-0.677-8.106-0.648c-2.606,0-5.356-0.324-7.795-0.648H449.896
		v10.882h62.021v404.695H408.158l-160.449-421.906h-8.923l-20.466,57.002l-113.836,316.981c-2.114,5.849-4.06,11.219-5.681,15.603
		c-1.621,4.539-3.411,8.611-5.188,11.854c-5.032,10.232-11.206,16.394-18.508,18.339c-7.146,1.803-19.986,2.606-38.338,2.127v10.869
		h134.133v-10.869l-19.818,0.636c-15.266,0-26.147-1.466-32.788-4.047c-6.667-2.762-9.909-7.808-9.909-14.461
		c0-2.102,0.648-5.525,1.946-10.207c1.128-4.708,3.086-11.219,5.681-19.183l29.389-81.19h145.845l49.208,128.452h-63.98v10.869
		h363.919v-10.869H574.47v-206.582l25.006,0.661c23.061,0,42.385,1.439,57.819,4.539c19.805,3.749,33.449,10.078,40.595,18.846
		c12.672,15.576,21.439,43.189,26.147,82.812c0.817,5.046,1.621,10.233,1.945,15.422c0.493,5.045,1.129,10.414,1.945,15.913
		c3.411,31.037,11.206,52.969,23.385,65.303c12.01,12.166,31.659,18.495,58.455,18.495c6.822,0,13.151-0.298,18.832-0.96
		c5.681-0.661,11.361-1.945,16.887-3.566c2.606,0,5.045-0.479,7.471-1.297c2.494-0.88,4.933-1.911,7.302-3.087l-3.892-8.456
		C852.14,1452.588,848.56,1453.729,845.811,1454.533L845.811,1454.533z M218.32,1313.902h-69.012l67.066-189.178l1.945,5.033
		l69.012,184.157H218.32V1313.902z M626.906,1235.306c-8.936,0.804-18.027,1.297-26.964,1.465
		c-8.768,0.169-17.366,0.169-25.485-0.324v-187.893l22.411,0.648c24.526,0,44.655,0.804,60.413,2.594
		c9.417,1.142,17.211,2.438,23.385,4.06c16.563,4.553,30.207,13.8,40.765,27.938c3.903,5.032,7.302,11.205,10.064,18.521
		c2.763,7.146,5.045,14.448,6.666,21.763c0.324,3.243,0.805,6.81,1.297,10.233c0.324,3.243,0.648,6.485,0.648,9.585
		c0,33.929-11.854,57.326-35.563,69.674c-14.949,7.743-30.834,13.528-47.263,17.211
		C647.373,1233.036,637.295,1234.488,626.906,1235.306L626.906,1235.306z"/>
</g>
</svg>
