<?xml version="1.0" encoding="utf-8"?>
<!-- Generator: Adobe Illustrator 16.0.3, SVG Export Plug-In . SVG Version: 6.00 Build 0)  -->
<!DOCTYPE svg PUBLIC "-//W3C//DTD SVG 1.1//EN" "http://www.w3.org/Graphics/SVG/1.1/DTD/svg11.dtd">
<svg version="1.1" id="Calque_1" xmlns="http://www.w3.org/2000/svg" xmlns:xlink="http://www.w3.org/1999/xlink" x="0px" y="0px"
	 width="438.349px" height="188.594px" viewBox="264.31 184 438.349 188.594" enable-background="new 264.31 184 438.349 188.594"
	 xml:space="preserve">
<g>
	<g>
		<path fill="#1D1D1B" d="M534.039,251.51l14.709-42.735l14.4,42.735H534.039z M375.174,232.619h-7.897v-40.877h6.658
			c11.613,0,19.51,7.587,19.51,21.522C393.445,220.852,387.406,232.619,375.174,232.619 M285.832,251.51l14.71-42.891l14.4,42.736
			L285.832,251.51L285.832,251.51z M702.658,191.742v-3.562h-49.549v3.562h7.742v67.509l-46.142-71.071h-21.522v3.562h7.741v90.58
			h-13.315L554.013,184l-34.529,98.322h-12.852v-90.58h7.742v-3.562h-20.438l-25.549,74.168l-26.941-74.168h-19.975v3.562h7.742
			v90.58h-15.329c-4.335,0-8.052-3.871-8.052-10.374v-14.245c0-10.994-3.561-20.129-14.555-23.226
			c9.6-2.787,16.258-11.923,16.258-21.678c0-13.935-10.374-24.464-30.348-24.464h-30.193v3.562h7.742v90.581h-15.484L305.651,184
			l-34.529,98.322h-6.813v3.562h19.355v-3.562h-8.516l9.6-27.406h31.432l9.135,27.406h-11.768v3.562H379.2v-3.562h-11.923v-46.142
			h8.052c11.613,0,17.497,4.8,17.497,16.103v8.361c0,19.974,13.162,25.239,20.284,25.239h28.026v-3.562h-8.361v-80.206
			l31.587,84.852l29.729-87.484v82.838h-7.741v3.562h45.522v-3.562h-8.517l9.601-27.406h31.432l9.136,27.406h-11.768v3.562h50.168
			v-3.562h-7.742v-85.471l60.077,92.284v-97.394h18.116v90.58h-7.742v3.562h27.871v-3.562h-7.741v-90.58H702.658z"/>
	</g>
	<g>
		<path fill="#1D1D1B" d="M376.877,357.265v5.729h-4.49v-42.426h4.49v18.426c2.478-3.561,5.884-6.657,11.458-6.657
			c7.277,0,14.4,5.729,14.4,15.483v0.155c0,9.755-7.123,15.639-14.4,15.639C382.761,363.768,379.2,360.671,376.877,357.265z
			 M398.09,348.284L398.09,348.284c0-7.277-4.954-11.768-10.528-11.768s-10.839,4.645-10.839,11.612v0.155
			c0,6.968,5.265,11.612,10.839,11.612C393.445,359.587,398.09,355.562,398.09,348.284z"/>
		<path fill="#1D1D1B" d="M414.968,348.284L414.968,348.284c0-8.826,6.039-15.794,14.4-15.794c8.825,0,13.935,7.123,13.935,15.794
			c0,0.619,0,0.929,0,1.394h-23.845c0.619,6.503,5.265,10.219,10.529,10.219c4.181,0,6.968-1.703,9.445-4.181l2.787,2.478
			c-3.097,3.406-6.658,5.729-12.388,5.729C421.626,363.768,414.968,357.574,414.968,348.284z M438.813,346.426
			c-0.464-5.419-3.561-10.22-9.6-10.22c-5.265,0-9.136,4.336-9.755,10.22H438.813z"/>
		<path fill="#1D1D1B" d="M454.606,354.478L454.606,354.478c0-6.503,5.265-9.755,12.852-9.755c3.871,0,6.503,0.465,9.29,1.238
			v-1.084c0-5.419-3.406-8.206-8.98-8.206c-3.562,0-6.349,0.929-9.136,2.168l-1.238-3.562c3.406-1.548,6.503-2.478,10.839-2.478
			c4.181,0,7.432,1.084,9.755,3.406c2.013,2.014,3.097,4.955,3.097,8.826v18.426h-4.336v-4.49
			c-2.013,2.787-5.574,5.109-10.838,5.109C460.336,363.768,454.606,360.361,454.606,354.478z M476.748,352.155v-2.942
			c-2.167-0.619-5.109-1.238-8.825-1.238c-5.729,0-8.826,2.477-8.826,6.193v0.154c0,3.717,3.406,5.884,7.587,5.884
			C472.258,360.206,476.748,356.8,476.748,352.155z"/>
		<path fill="#1D1D1B" d="M495.948,351.69v-18.581h4.49v17.652c0,5.574,3.097,8.98,8.207,8.98c5.109,0,8.98-3.717,8.98-9.445
			v-17.188h4.335v30.039h-4.335v-5.265c-2.013,3.252-5.11,5.884-10.374,5.884C500.129,363.768,495.948,358.813,495.948,351.69z"/>
		<path fill="#1D1D1B" d="M539.458,355.252v-18.116h-4.181v-4.026h4.181v-8.98h4.49v8.98h9.601v3.871h-9.601v17.497
			c0,3.562,2.013,4.955,5.109,4.955c1.549,0,2.787-0.31,4.336-1.084v3.871c-1.549,0.773-3.252,1.238-5.419,1.238
			C543.174,363.458,539.458,361.136,539.458,355.252z"/>
		<path fill="#1D1D1B" d="M589.626,333.109h4.8l-12.697,30.968c-2.632,6.193-5.419,8.517-10.064,8.517
			c-2.477,0-4.335-0.465-6.348-1.549l1.548-3.561c1.394,0.773,2.787,1.083,4.646,1.083c2.632,0,4.335-1.394,6.193-5.729
			l-13.626-29.729h4.955l10.839,25.084L589.626,333.109z"/>
	</g>
</g>
</svg>
