<svg xmlns="http://www.w3.org/2000/svg" viewBox="0 0 399.5 199.17"><title>EA7 Emporio Armani logo - Brandlogos.net</title><path d="M711.75,575H694.63v.74h2.84v26.78L680.05,575h-7.49v.74h2.82V609.6h-4.71l-12.13-36.18L646,609.6h-4.46V575.74h2.62V575H637.4l-9.61,28.25L617.7,575h-6.89v.74h2.83v33.87h-5.19c-1.79,0-3.26-1.57-3.26-4.1v-5.25c0-4.34-1.52-7.81-6.36-8.54a8.18,8.18,0,0,0,7-8c0-4.92-3.65-8.71-10.9-8.71h-10.8v.74h2.82v33.87h-5.41l-12.13-36.18-12.55,36.18h-2.35v.78H561v-.78h-3.22l3.74-11h11.87l3.63,11h-4.45v.78h22.83v-.78H591V592.1h3.2c4.39,0,6.71,1.79,6.71,6.18v3.08c0,7.26,4.71,9,7.18,9h9.38v-.78H614.4V578.28l11.86,32.45,11.22-33.54v32.39h-2.82v.78h15.49v-.78h-3.25l3.75-11h11.86l3.63,11h-4.44v.78H679v-.78h-2.84V576.92l22.07,34.67V575.74h6.65v33.87H702v.78h9.74v-.78h-2.82V575.74h2.82Zm-150,22.89L567.55,581l5.59,16.92ZM591,591.32V575.74h2.71c4.47,0,7.47,2.91,7.47,8.17,0,2.9-2.27,7.42-7,7.42Zm59.88,6.56,5.82-16.9,5.59,16.92Z" transform="translate(-312.25 -412.42)" style="fill:#1a171b"/><path d="M327.69,575.74c6,0,7.5,3.48,7.5,8.44h.7V575H312.25v.74h3.08v33.87h-3.08v.78h23.64V600.2h-.7c0,5.26-1.28,9.42-9.95,9.42h-5.84V592.89h2.51c3.92,0,5.74,2,5.74,5.42h.69V586.72h-.69c0,3.46-1.85,5.41-5.74,5.41h-2.51V575.74Z" transform="translate(-312.25 -412.42)" style="fill:#1a171b"/><path d="M481.78,574.15c-9.25,0-15.32,10.29-15.32,18.56,0,9,6.58,18.5,15.32,18.5s15.32-8.91,15.32-18.5c0-8.25-6.57-18.56-15.32-18.56m0,36.36c-9.42,0-9.86-12.28-9.86-17.8s.63-17.8,9.86-17.8,9.91,12.32,9.91,17.8-.53,17.8-9.91,17.8" transform="translate(-312.25 -412.42)" style="fill:#1a171b"/><path d="M412.09,574.15c-9.25,0-15.32,10.29-15.32,18.56,0,9,6.58,18.5,15.32,18.5s15.32-8.91,15.32-18.5c0-8.25-6.58-18.56-15.32-18.56m0,36.36c-9.42,0-9.86-12.28-9.86-17.8s.63-17.8,9.86-17.8,9.91,12.32,9.91,17.8-.53,17.8-9.91,17.8" transform="translate(-312.25 -412.42)" style="fill:#1a171b"/><path d="M455.42,575.74h2.83v33.87h-5.19c-1.79,0-3.25-1.57-3.25-4.1v-5.25c0-4.34-1.52-7.81-6.36-8.54a8.18,8.18,0,0,0,7-8c0-4.92-3.65-8.71-10.91-8.71H428.74v.74h2.82v33.87h-2.82v.78H440v-.78h-4.37V592.1h3.2c4.39,0,6.71,1.73,6.71,6.18v3.08c0,7.37,4.71,9,7.18,9h12.44v-.78h-2.83V575.74h2.83V575h-9.73Zm-19.78,15.58V575.74h2.71c4.48,0,7.48,2.91,7.48,8.17,0,2.9-2.27,7.42-7,7.42Z" transform="translate(-312.25 -412.42)" style="fill:#1a171b"/><path d="M382.51,575h-18l-9.61,28.25L344.77,575h-6.86v.74h2.83v33.87h-2.83v.78h6.65v-.78h-3.08V578.28l11.86,32.45,11.24-33.54v32.39h-2.83v.78h20.53v-.78h-2.82V595.71h3.05c8.08,0,12-4.5,12-10.26,0-5.55-3.44-10.44-12-10.44m-7.18,34.61h-6.68V575.74h6.68ZM381.52,595h-2.06V575.74h2.06c5.12,0,8.32,2.64,8.32,9.71,0,6.39-2.46,9.52-8.32,9.52" transform="translate(-312.25 -412.42)" style="fill:#1a171b"/><path d="M533.63,579.27c.23-.86.89-.84,1.89-.84H538a4.3,4.3,0,0,0-3.59-3.43h-9.86a.39.39,0,0,0-.33.25,7.33,7.33,0,0,0-1.18,3.92v.11Z" transform="translate(-312.25 -412.42)" style="fill:#1a171b"/><path d="M510.36,575H492.65a3.48,3.48,0,0,0-.06.68c0,2.35,2.53,3.58,2.53,3.58h18.83Z" transform="translate(-312.25 -412.42)" style="fill:#1a171b"/><path d="M515.57,581.23H497.86a3.18,3.18,0,0,0-.07.68c0,2.35,2.53,3.58,2.53,3.58h18.83Z" transform="translate(-312.25 -412.42)" style="fill:#1a171b"/><path d="M566.18,575H548.43l-3.57,4.26h18.83s2.53-1.22,2.53-3.58a3.39,3.39,0,0,0-.07-.68" transform="translate(-312.25 -412.42)" style="fill:#1a171b"/><path d="M543.26,581.23l-3.58,4.26h18.83s2.53-1.22,2.53-3.58a3.92,3.92,0,0,0-.07-.68Z" transform="translate(-312.25 -412.42)" style="fill:#1a171b"/><path d="M508.27,593.67a3.32,3.32,0,0,0-.07.67c0,2.35,2.53,3.59,2.53,3.59h8.81a5.21,5.21,0,0,1,4.6-3.08,3.14,3.14,0,0,1,1.57.44,1.28,1.28,0,0,0,.52.2.57.57,0,0,0,.65-.49v-.11h.49v3h5.37l1.15-3.28.06-.16,1.17,3.44h13s2.53-1.21,2.53-3.59a3.39,3.39,0,0,0-.07-.67Z" transform="translate(-312.25 -412.42)" style="fill:#1a171b"/><path d="M524.14,595.39a3,3,0,0,0-3,2.53h5.49c-.45-1.74-1.57-2.53-2.57-2.53" transform="translate(-312.25 -412.42)" style="fill:#1a171b"/><path d="M520.83,601.21a14.12,14.12,0,0,0,.27,2.93h5.13v-1.57h-1.12V602h3.7v.56h-.95v1.57h2.66c.43-1.25,1-2.79,1.5-4.26H520.88c0,.54,0,1,0,1.33" transform="translate(-312.25 -412.42)" style="fill:#1a171b"/><path d="M542.93,604.14s2.53-1.22,2.53-3.58a3.61,3.61,0,0,0-.06-.68h-9.62l1.46,4.26Z" transform="translate(-312.25 -412.42)" style="fill:#1a171b"/><path d="M518.85,599.88h-5.38a3.54,3.54,0,0,0-.06.68c0,2.35,2.52,3.58,2.52,3.58h3.47a7.25,7.25,0,0,1-.68-2.93,6.48,6.48,0,0,1,.15-1.33" transform="translate(-312.25 -412.42)" style="fill:#1a171b"/><path d="M523.91,607a2.21,2.21,0,0,0,1.85-.93h-3.84a2.35,2.35,0,0,0,2,.93" transform="translate(-312.25 -412.42)" style="fill:#1a171b"/><path d="M539.44,606.73v.55h-4.6v-.55h1.44l-.21-.63h-5.59l-.23.63h1v.55h-2.47v-.55h.86l.22-.63h-2v1.18h-.55v-.05c0-.41-.24-.67-.51-.67a1.68,1.68,0,0,0-1,.41,2.9,2.9,0,0,1-1.88.61,4.44,4.44,0,0,1-3.22-1.47h-2a3.8,3.8,0,0,0-.07.68c0,2.35,2.53,3.58,2.53,3.58h16.56s2.52-1.22,2.52-3.58a4.1,4.1,0,0,0-.06-.68h-2.26c.13.38.21.62.21.63h1.33" transform="translate(-312.25 -412.42)" style="fill:#1a171b"/><polygon points="220.64 168.81 220.44 168.81 210.79 168.81 210.62 173.06 221.85 173.06 220.64 168.81" style="fill:#1a171b"/><path d="M538.06,587.45l-1.69,2-1.71-2H522.78l-.31,2-1.72-2h-17.7a3.34,3.34,0,0,0-.07.67c0,2.35,2.53,3.58,2.53,3.58h47.8s2.53-1.22,2.53-3.58a3.42,3.42,0,0,0-.07-.67Z" transform="translate(-312.25 -412.42)" style="fill:#1a171b"/><polygon points="221.74 187.46 220.37 187.46 219.46 190.15 222.63 190.15 221.74 187.46" style="fill:#1a171b"/><polygon points="219.26 190.69 218.91 191.72 223.16 191.72 222.82 190.69 219.26 190.69" style="fill:#1a171b"/><path d="M330.08,541.44h88.44c5.07,0,8.72,2.63,8.72,8.29s-3.65,8.31-8.72,8.31H321.77c-6.69,0-9.52-4.25-9.52-9.71V423.58c0-5.49,2.83-9.71,9.52-9.71h96.75c5.07,0,8.72,2.64,8.72,8.3s-3.65,8.3-8.72,8.3H330.08v47.18h84.6c5.07,0,8.7,2.63,8.7,8.3s-3.63,8.31-8.7,8.31h-84.6Z" transform="translate(-312.25 -412.42)" style="fill:#1a171b"/><path d="M481.82,494.32l25.56-61.26s.33-.63.78-.63.78.63.78.63l26,61.26Zm92.92,48.35L520.88,422.62c-2.53-6-6.27-10.29-12.72-10.2h-.44c-6.2.09-9.85,4.36-12.32,10.2L441.54,542.67c-.74,1.77-2.9,6.28-3.08,8.7-.35,4.65,3.29,7.76,7.93,8.1,4.85.35,7.49-2.29,9.17-6l19.62-44.18v-.08l66.25.08,19.22,44.18c1.7,3.73,4.33,6.38,9.18,6,4.65-.34,8.28-3.44,7.93-8.1-.18-2.42-2.35-6.93-3.08-8.7" transform="translate(-312.25 -412.42)" style="fill:#1a171b"/><polygon points="398.68 0.1 271.73 0.1 265.88 13.17 392.9 13.17 398.68 0.1" style="fill:#1a171b"/><polygon points="389.05 21.87 261.98 21.87 255.89 35.46 383.05 35.46 389.05 21.87" style="fill:#1a171b"/><polygon points="379.19 44.16 331.87 44.16 325.98 57.75 373.18 57.75 379.19 44.16" style="fill:#1a171b"/><polygon points="369.34 66.45 322.2 66.45 316.32 80.04 363.33 80.04 369.34 66.45" style="fill:#1a171b"/><polygon points="359.48 88.74 312.55 88.74 306.66 102.33 353.46 102.33 359.48 88.74" style="fill:#1a171b"/><polygon points="349.61 111.04 302.88 111.04 297 124.63 343.6 124.63 349.61 111.04" style="fill:#1a171b"/><polygon points="339.76 133.33 293.22 133.33 287.34 146.91 333.75 146.91 339.76 133.33" style="fill:#1a171b"/></svg>